<svg xmlns="http://www.w3.org/2000/svg" width="14.59" height="13.678" viewBox="0 0 14.59 13.678">
  <g id="calendar_2_" data-name="calendar (2)" transform="translate(0 -16)">
    <g id="Group_41555" data-name="Group 41555" transform="translate(0 16)">
      <path id="Path_39959" data-name="Path 39959" d="M11.74,17.14h-.57v-.57a.57.57,0,1,0-1.14,0v2.28a.57.57,0,0,0,1.14,0v-.57h.57a1.712,1.712,0,0,1,1.71,1.71v6.839a1.712,1.712,0,0,1-1.71,1.71H2.85a1.712,1.712,0,0,1-1.71-1.71V19.989a1.712,1.712,0,0,1,1.71-1.71h.57v.57a.57.57,0,1,0,1.14,0V16.57a.57.57,0,1,0-1.14,0v.57H2.85A2.853,2.853,0,0,0,0,19.989v6.839a2.853,2.853,0,0,0,2.85,2.85H11.74a2.853,2.853,0,0,0,2.85-2.85V19.989A2.853,2.853,0,0,0,11.74,17.14Z" transform="translate(0 -16)" fill="#c02328"/>
      <path id="Path_39960" data-name="Path 39960" d="M198.85,57.14a.57.57,0,1,0,0-1.14h-2.28a.57.57,0,0,0,0,1.14Z" transform="translate(-190.415 -54.86)" fill="#c02328"/>
      <path id="Path_39961" data-name="Path 39961" d="M80,176.57a.57.57,0,0,0,.57.57h8.891a.57.57,0,1,0,0-1.14H80.57A.57.57,0,0,0,80,176.57Z" transform="translate(-77.72 -171.441)" fill="#c02328"/>
    </g>
    <path id="Path_39962" data-name="Path 39962" d="M161.3,256.167l-3.016,3.017-1.307-1.307a.57.57,0,0,0-.806.806l1.71,1.71a.57.57,0,0,0,.806,0l3.419-3.419a.57.57,0,0,0-.806-.806Z" transform="translate(-151.555 -233.161)" fill="#c02328"/>
  </g>
</svg>
