<svg id="Group_39022" data-name="Group 39022" xmlns="http://www.w3.org/2000/svg" width="15.124" height="16.5" viewBox="0 0 15.124 16.5">
  <path id="Path_4118" data-name="Path 4118" d="M10,14.188V22.61a1.889,1.889,0,0,0,1.89,1.89h8.593a1.89,1.89,0,0,0,1.891-1.89V14.188Zm4.125,6.875a.688.688,0,1,1-1.376,0V16.938a.688.688,0,1,1,1.376,0Zm2.75,0a.688.688,0,1,1-1.376,0V16.938a.688.688,0,1,1,1.376,0Zm2.749,0a.688.688,0,1,1-1.376,0V16.938a.688.688,0,0,1,1.377,0v4.125Zm-5.5-11.688H18.25v.688h1.375V9.375A1.379,1.379,0,0,0,18.25,8H14.125A1.379,1.379,0,0,0,12.75,9.375v.688h1.375Z" transform="translate(-8.625 -8)" fill="#fe646f"/>
  <path id="Path_4119" data-name="Path 4119" d="M23.791,11.89v1.719a.52.52,0,0,1-.516.516H9.183a.52.52,0,0,1-.516-.516V11.89A1.889,1.889,0,0,1,10.557,10H21.9A1.889,1.889,0,0,1,23.791,11.89Z" transform="translate(-8.667 -7.938)" fill="#fe646f" opacity="0.5"/>
</svg>
