<svg xmlns="http://www.w3.org/2000/svg" width="32.203" height="22.127" viewBox="0 0 32.203 22.127">
  <g id="Group_39467" data-name="Group 39467" transform="translate(-522 -51)">
    <g id="saudi-arabia" transform="translate(522 51)">
      <path id="Path_39787" data-name="Path 39787" d="M32.2,96.558a3.137,3.137,0,0,1-3.116,3.168H3.116A3.137,3.137,0,0,1,0,96.558V80.768A3.137,3.137,0,0,1,3.116,77.6h25.97A3.137,3.137,0,0,1,32.2,80.768Z" transform="translate(0 -77.6)" fill="#096"/>
      <path id="Path_39788" data-name="Path 39788" d="M48,77.6H73.97a3.137,3.137,0,0,1,3.116,3.168v15.79a3.137,3.137,0,0,1-3.116,3.168" transform="translate(-44.884 -77.6)" fill="#038e5c"/>
      <g id="Group_39459" data-name="Group 39459" transform="translate(0 0)">
        <path id="Path_39789" data-name="Path 39789" d="M32.2,369.6a3.137,3.137,0,0,1-3.116,3.168H3.116A3.137,3.137,0,0,1,0,369.6" transform="translate(0 -350.642)" fill="#007a54"/>
        <path id="Path_39790" data-name="Path 39790" d="M48,77.6H73.97a3.137,3.137,0,0,1,3.116,3.168v5.765" transform="translate(-44.884 -77.6)" fill="#007a54"/>
      </g>
      <g id="Group_39460" data-name="Group 39460" transform="translate(3.039 4.686)">
        <path id="Path_39791" data-name="Path 39791" d="M57.808,150.612c.208-.156.208.26,0,.727a1.276,1.276,0,0,0,.26-.779c-.052-.364-.26-.312-.416-.1C57.548,150.612,57.6,150.716,57.808,150.612Z" transform="translate(-56.899 -150.259)" fill="#fff"/>
        <path id="Path_39792" data-name="Path 39792" d="M47.769,153.084c.26-.467.156-.831.364-1.506.156-.416.156-.1.156.156-.1.675-.052,1.766.883,1.714.052.623.208,1.714.208,2.13,0,.364.052.26.156.052a1.843,1.843,0,0,0,.052-.779c0-.312-.052-.883-.1-1.662a1.941,1.941,0,0,0,.312-.364c.1-.26.156-.208.208,0,.1.416.519.675,1.039.26.519-.364.312-1.091.052-1.87.208.052.26-.1.156-.312-.052-.1-.156-.208-.208-.312-.1-.1-.156-.208-.26-.1s-.156.208-.208.26-.052.156,0,.312a6.045,6.045,0,0,1,.364,1.247c.052.26-.052.312-.26.312-.156,0-.416-.052-.519-.467a1.855,1.855,0,0,1-.1-.883.944.944,0,0,0-.156-.727c-.208-.26-.208-.208-.26-.1a1.169,1.169,0,0,0-.052.623c.1.364.156.675.208.883a.681.681,0,0,1-.364.623c-.052-.519-.1-1.143-.156-1.714.312-.1.156-.467-.1-.883-.156-.312-.26-.208-.364,0a.387.387,0,0,0,.052.467c-.052.156.052.364.1.727a10.146,10.146,0,0,1,.1,1.506.554.554,0,0,1-.467-.364,1.461,1.461,0,0,1-.052-1.039c.1-.26.156-.623,0-.727s-.312,0-.416.208a2.2,2.2,0,0,0-.416,1.195,1.6,1.6,0,0,1-.156.675c-.052.156-.208.156-.312-.052a3.784,3.784,0,0,1-.26-1.558c0-.208-.052-.26-.1,0a3.373,3.373,0,0,0,.208,2.026C47.354,153.5,47.614,153.4,47.769,153.084Z" transform="translate(-46.809 -149.771)" fill="#fff"/>
        <path id="Path_39793" data-name="Path 39793" d="M92.958,151.025c.1-.1.1-.1.156,0a.147.147,0,0,0,.26,0,.319.319,0,0,0,.052-.312c-.052-.1-.052-.052-.1.052-.052.208-.26.156-.26-.1s-.052-.1-.156.052c-.1.26-.26.208-.26-.052,0-.156-.052-.312-.156-.1a.552.552,0,0,0,.052.416C92.7,151.129,92.854,151.129,92.958,151.025Z" transform="translate(-89.504 -150.413)" fill="#fff"/>
        <path id="Path_39794" data-name="Path 39794" d="M52.116,213.67c.156-.052.156-.052.156-.26s-.1-.1-.312-.052a3.307,3.307,0,0,0-1.4.987c-.208.26-.052.156.1.052A5.441,5.441,0,0,1,52.116,213.67Z" transform="translate(-50.221 -209.162)" fill="#fff"/>
        <path id="Path_39795" data-name="Path 39795" d="M52.4,248.23c-.156.26-.467-.1-.26-.779a1.321,1.321,0,0,0,.1-.364v-.364c0-.1-.1.052-.156.26a3.27,3.27,0,0,0-.208,1.454c.052.571.727.571.779-.156C52.66,247.97,52.556,247.97,52.4,248.23Z" transform="translate(-51.544 -240.398)" fill="#fff"/>
        <path id="Path_39796" data-name="Path 39796" d="M70.319,158.787c0-.26-.052-.519-.052-.779.052,0,.052-.052.1-.052.156.467.831.364,1.039.052.1-.156.1-.156.208,0,.156.208.675.312.779,0a1.563,1.563,0,0,0,.052-.831c-.052-.26-.1-.208-.26-.1s-.052.156,0,.312c.052.623-.467.571-.519-.052-.052-.416-.1-.26-.156-.052-.26.779-.935.935-.831,0,0-.26-.156-.156-.26-.052l-.208.208c-.052-.727-.1-1.558-.208-2.6.208.26.416-.052.26-.312-.1-.208-.26-.727-.364-.987s-.156-.208-.364.052c-.208.208-.156.26-.1.519a5.337,5.337,0,0,0,.1,1.143c.052.416.156,1.3.26,2.389-.1.052-.26.156-.364.208-.052-.208-.208-.312-.416-.519-.312-.312-.519-.312-.779.052a.908.908,0,0,0-.208.779c0,.312-.052.416.208.519a.6.6,0,0,0,.519,0,2.416,2.416,0,0,1,.467-.156.5.5,0,0,1-.1.467c-.623.727-1.558,1.3-1.974.779a1.648,1.648,0,0,1-.26-1.195c.052-.416-.052-.208-.1-.1a2.289,2.289,0,0,0,0,1.558c.26.519.727.727,1.454.364a2,2,0,0,0,1.4-1.662v-.364a1.135,1.135,0,0,0,.26-.156v.883a1.364,1.364,0,0,1-.623,1.35,3.219,3.219,0,0,1-1.506.623c-1.143.156-1.4-.571-1.4-1.558,0-.156.052-.26.052-.467,0-.416-.052-.364-.208.052a3.4,3.4,0,0,0,.1,2.13c.416.779,1.766.571,2.8.052A2.26,2.26,0,0,0,70.319,158.787Zm-1.454-.779c-.26.1-.364-.052-.312-.208,0-.156.052-.26.26-.156a.882.882,0,0,1,.312.312A.7.7,0,0,1,68.865,158.008Z" transform="translate(-64.84 -153.136)" fill="#fff"/>
        <path id="Path_39797" data-name="Path 39797" d="M144.921,235.988a.99.99,0,0,0,.1-.675c-.052-.156,0-.208-.156-.312-.156-.052-.208.052-.26.156-.052.156.052.364.26.26a.936.936,0,0,1-.052.519C144.765,236.144,144.817,236.2,144.921,235.988Z" transform="translate(-138.247 -229.454)" fill="#fff"/>
        <path id="Path_39798" data-name="Path 39798" d="M152.714,183.205c-.208.26-.364.623-.052.831.156.1.467-.052.571-.26.1-.26.052-.312-.156-.052-.26.312-.571.052-.26-.416C153.026,183,152.87,182.945,152.714,183.205Z" transform="translate(-145.625 -180.879)" fill="#fff"/>
        <path id="Path_39799" data-name="Path 39799" d="M138.36,153.69a2.741,2.741,0,0,0,1.35-1.091c.208.052.26-.1.156-.26a2.529,2.529,0,0,1,.156-.364c.156-.675-.519-.727-.675-.208a.54.54,0,0,0,.1.675,4.288,4.288,0,0,1-1.247,1.091C138,153.741,138.049,153.845,138.36,153.69Zm1.247-1.818c.052-.156.156-.052.156.052a.394.394,0,0,1-.1.208C139.555,152.079,139.555,151.976,139.607,151.872Z" transform="translate(-132.154 -151.311)" fill="#fff"/>
      </g>
      <path id="Path_39800" data-name="Path 39800" d="M156.617,151.768a.54.54,0,0,0,.1.675c-.052.052-.1.156-.156.208l.26.208c.052-.1.156-.156.208-.26.208.052.26-.1.156-.26a2.532,2.532,0,0,1,.156-.364C157.448,151.3,156.825,151.248,156.617,151.768Zm.416.156a.394.394,0,0,1-.1.208c-.1-.052-.1-.156-.052-.26C156.929,151.716,157.033,151.82,157.033,151.924Z" transform="translate(-146.385 -146.626)" fill="#cfe7e8"/>
      <path id="Path_39801" data-name="Path 39801" d="M125.749,204.474a1.941,1.941,0,0,0-.364.312c0-.208.052-.519.052-.623,0-.156-.052-.208-.156-.052a4.134,4.134,0,0,0-.364,1.039,14.889,14.889,0,0,1-2.078,1.195c-.26.1-.1.208.1.156a20.445,20.445,0,0,0,1.974-.727c.052.467.208.779.623.883.779.208,1.558-.467,2.441-1.662a2.407,2.407,0,0,0,2.078,1.558c.571.1.519.052.623-.26.052-.26.156-.312-.312-.416-.571-.208-.779-.623-.208-.883a9.534,9.534,0,0,1,1.87-.571c.364-.052.467-.052.571-.364.1-.364.156-.416-.208-.364a26.685,26.685,0,0,1-2.909.052c.416-.208.987-.416,1.4-.571.156.1.208.052.156-.052a1.845,1.845,0,0,0,.467-.208c.467-.26.675-.831.156-1.195s-.935-.467-1.195-.1c-.208.312-.416.623-.1,1.039-.467.156-.883.312-1.3.467-.312.1-.467.156-.571.571s-.156.416.26.467a2.173,2.173,0,0,1,1.454.312c-.571.208-.987.623-.779,1.195a1.385,1.385,0,0,1-.727-.364c-.416-.416-.416-1.143-.571-1.974a7.25,7.25,0,0,0-.675-1.87c-.1-.312-.156-.156-.26.052a.638.638,0,0,0-.1.623,21.634,21.634,0,0,1,.675,2.182,3.086,3.086,0,0,1-1.818,1.714c-.519.1-.675-.208-.623-.467a4.655,4.655,0,0,0,.987-.779,1.827,1.827,0,0,0,.312-2.285q.39.078-.156-.623c-.26-.312-.312-.26-.467.052-.1.26-.208.467.1.571a3.415,3.415,0,0,0,.312.623C126.736,203.8,126.217,204.059,125.749,204.474Zm4.934-2.285c0-.156.052-.156.312,0s.467.208.1.26c-.1.052-.26.052-.364.1A.771.771,0,0,0,130.684,202.189Z" transform="translate(-114.738 -193.255)" fill="#fff"/>
      <g id="Group_39461" data-name="Group 39461" transform="translate(12.518 7.999)">
        <path id="Path_39802" data-name="Path 39802" d="M239.782,238.154c-.26,0-1.4.052-2.182.052l1.039.883a5.874,5.874,0,0,1,.779-.208c.364-.052.467-.052.571-.364C240.093,238.154,240.145,238.1,239.782,238.154Z" transform="translate(-234.691 -235.713)" fill="#cfe7e8"/>
        <path id="Path_39803" data-name="Path 39803" d="M192.8,200.8l.1.1C192.9,200.8,192.852,200.8,192.8,200.8Z" transform="translate(-192.8 -200.8)" fill="#cfe7e8"/>
        <path id="Path_39804" data-name="Path 39804" d="M225.371,204.263c.312-.156.675-.26.935-.364.156.1.208.052.156-.052a1.845,1.845,0,0,0,.467-.208c.467-.26.675-.831.156-1.195s-.935-.467-1.195-.1c-.208.312-.416.623-.1,1.039a5.538,5.538,0,0,0-.987.364Zm1.143-1.3c.26.156.467.208.1.26-.1.052-.26.052-.364.1a.914.914,0,0,1-.052-.312C226.15,202.809,226.254,202.809,226.514,202.965Z" transform="translate(-222.722 -202.03)" fill="#cfe7e8"/>
      </g>
      <path id="Path_39805" data-name="Path 39805" d="M253.341,266.912a2.715,2.715,0,0,0,.623-.364c.208-.208.052-.156-.1-.1a5.39,5.39,0,0,1-.519.208c-.208.1-.26,0-.156-.364.1-.312,0-.312-.156-.26s-.208.156-.364.26c-.1.052-.1.156.156.052.208-.1.156,0,.1.26C252.821,266.86,252.977,267.016,253.341,266.912Z" transform="translate(-236.2 -253.771)" fill="#fff"/>
      <g id="Group_39462" data-name="Group 39462" transform="translate(11.208 4.572)">
        <path id="Path_39806" data-name="Path 39806" d="M173.729,150.931c.156-.364.26-.727.364-.987s.208-.208.156.052c-.052.467-.052,1.195.416,1.506.467.26,1.195-.208,1.454-.727.779.987,1.454.519,1.506-.416a3.734,3.734,0,0,0-.208-1.143c-.1-.208,0-.208.1-.1s.312.208.208-.156a1.672,1.672,0,0,0-.416-.675c-.156-.156-.208-.052-.26.052a.692.692,0,0,1-.156.26c-.1.1-.052.156,0,.312.312.727.571,1.818.1,1.922-.416.1-.675-.831-.675-1.247a4.235,4.235,0,0,0-.208-1.3c-.1-.312-.156-.312-.26-.156-.052.1-.052.208-.156.312-.052.1,0,.156.052.364.26,1.195.208,1.714-.312,2.026s-.831,0-.831-.364a8.04,8.04,0,0,1,.052-1.143c.052-.312.1-.416,0-.571s-.208-.1-.364.1a7.5,7.5,0,0,0-.779,1.61c-.1.364-.364.26-.519-.052a2.443,2.443,0,0,1-.1-1.35c.052-.26.052-.364-.1-.1a1.914,1.914,0,0,0,.312,2.078C173.365,151.5,173.573,151.294,173.729,150.931Z" transform="translate(-172.627 -148.024)" fill="#cfe7e8"/>
        <path id="Path_39807" data-name="Path 39807" d="M207.886,154.02c0,.156,0,.364.1.052a2.083,2.083,0,0,0-.052-.987c-.1-.26-.156-.312-.26-.208s-.1.156,0,.26A1.389,1.389,0,0,1,207.886,154.02Z" transform="translate(-205.329 -152.516)" fill="#cfe7e8"/>
        <path id="Path_39808" data-name="Path 39808" d="M217.286,205.458c0,.416-.1.416-.26,0-.052-.156-.1-.156-.156.052,0,.364-.156.416-.26.052-.052-.156-.052-.312-.1-.052a.6.6,0,0,0,.1.519c.1.1.26.1.312-.052s.1-.156.208-.052.519,0,.312-.571C217.338,205.146,217.286,205.2,217.286,205.458Z" transform="translate(-213.639 -201.512)" fill="#cfe7e8"/>
        <path id="Path_39809" data-name="Path 39809" d="M292.184,151.564a.692.692,0,0,1,.26.675c-.052.26,0,.416.156.052a1.191,1.191,0,0,0-.1-1.039c-.156-.26-.208-.156-.312-.052C292.08,151.356,292.028,151.512,292.184,151.564Z" transform="translate(-284.329 -150.89)" fill="#cfe7e8"/>
        <path id="Path_39810" data-name="Path 39810" d="M251.3,150.381c0,.156.052.26.26.312.416.571.883,1.195,1.3,1.766.052.519.156,1.039.208,1.506a13.074,13.074,0,0,1,.156,3.064c-.1.467,0,.623.208-.052a4.943,4.943,0,0,0,.052-2.337c-.052-.416-.052-.883-.1-1.4a19.294,19.294,0,0,1,1.61,2.857c.156.416.312.467.156-.052a13.047,13.047,0,0,0-1.87-3.532,9.21,9.21,0,0,1-.052-1.143c.156.156.26.052.208-.156a10.105,10.105,0,0,0-.416-1.143c-.052-.208-.26-.208-.364.052-.1.312-.1.364,0,.571a8,8,0,0,0,.1.987,9.18,9.18,0,0,0-.623-.883c.26.1.467.052.208-.26-.26-.26-.623-.571-.831-.779s-.312-.052-.312.1C251.3,150.121,251.356,150.225,251.3,150.381Z" transform="translate(-246.099 -149.552)" fill="#cfe7e8"/>
        <path id="Path_39811" data-name="Path 39811" d="M293.912,179c-.052.26-.156.156-.208-.052-.052-.1-.1-.052-.1.156.052.208.1.364.26.208.1-.1.1-.1.26,0,.1.1.208,0,.26-.052a.965.965,0,0,0,0-.416c-.052-.26-.1-.1-.156.1s-.156.26-.208,0C294.016,178.737,293.912,178.789,293.912,179Z" transform="translate(-285.746 -176.713)" fill="#cfe7e8"/>
        <path id="Path_39812" data-name="Path 39812" d="M287.715,157.844c.052.935.156,1.35-.416,2.026a2.7,2.7,0,0,1-1.3.935c-.364.1-.467.26.052.208.779-.052.883-.052,1.558-.831.364-.416.519-.935.519-2.182-.052-2.181-.312-3.116-.312-4.311.1.1.26.1.208-.1a4.863,4.863,0,0,1-.208-.831c-.1-.26-.156-.364-.26-.208s-.208.208-.26.312a.4.4,0,0,0,0,.416C287.611,155.818,287.663,156.909,287.715,157.844Z" transform="translate(-278.355 -152.184)" fill="#cfe7e8"/>
        <path id="Path_39813" data-name="Path 39813" d="M327.749,157.936a3.67,3.67,0,0,1,0,1.506c-.052.156.052.26.156,0a3.211,3.211,0,0,0,.1-2.182c-.052-.779-.364-2.8-.416-3.636l.052.052c.208.1.467.208.312-.1a6.2,6.2,0,0,1-.416-1.039c-.1-.312-.156-.312-.312-.052-.312.416-.1.831,0,1.35C327.437,155.6,327.7,157.416,327.749,157.936Z" transform="translate(-317.038 -152.016)" fill="#cfe7e8"/>
        <path id="Path_39814" data-name="Path 39814" d="M350.66,184.675a3.875,3.875,0,0,1,.364.623c.1.26.208.052.208-.1a3.908,3.908,0,0,1,0-.779c.1-.26.26.1.312-.052.052-.1-.052-.156-.1-.26-.052-.156-.1-.1-.208-.052a.475.475,0,0,0-.156.26v.571c0,.208-.052.208-.1.1a2.334,2.334,0,0,0-.312-.623.146.146,0,0,0-.26.1v.26C350.4,184.831,350.608,184.831,350.66,184.675Z" transform="translate(-338.858 -181.664)" fill="#cfe7e8"/>
        <path id="Path_39815" data-name="Path 39815" d="M352.8,209.2c0,.156.208-.052.364-.156s.623-.416.831-.519.156-.156.1-.364c0-.208-.156-.052-.312.1s-.623.467-.779.623S352.8,209.093,352.8,209.2Z" transform="translate(-341.102 -204.16)" fill="#cfe7e8"/>
        <path id="Path_39816" data-name="Path 39816" d="M328.543,157.425a2.533,2.533,0,0,1-.208-1.195c0-.312-.052-.571-.156-.052-.312,1.247-.1,1.506.208,1.766.416.364.571.416.779.052.416-.623.571-1.143.779-1.454.208-.26.208-.052.312.052a1.144,1.144,0,0,0,.831.467c.364.052.987-.26.935-1.4-.052-.727-.1-1.662-.156-2.7.364.467.623.883.883,1.247a12.2,12.2,0,0,1,.156,1.766c-.052.571.1.571.208,0a5.193,5.193,0,0,0,0-1.3,9.557,9.557,0,0,1,.883,1.3c.208.364.312.623.26-.052,0-.26-.1-.467-.416-.935-.312-.416-.571-.831-.831-1.247-.1-.987-.208-2.078-.208-2.649.156.1.26,0,.156-.208a7.894,7.894,0,0,0-.312-1.039c-.1-.208-.208-.208-.312.052-.1.208-.208.312-.156.467a21.179,21.179,0,0,0,.312,2.753c-.26-.364-.519-.727-.727-1.039,0-.364-.052-.727-.052-1.091.156.1.208.1.156-.156a6.937,6.937,0,0,0-.364-.935c-.1-.208-.156-.208-.26-.052a.628.628,0,0,0-.052.727c0,.26.052.467.052.727a5.445,5.445,0,0,0-.416-.571c.156.052.26-.052.1-.208s-.467-.416-.623-.571c-.156-.208-.26-.156-.26,0v.467a.812.812,0,0,0,.156.519c.364.467.779.935,1.091,1.4.156,1.662.208,2.753.208,3.428,0,.416-.156.623-.364.675s-.415-.052-.623-.364c-.364-.519-.519-.416-.779.052s-.467.831-.623,1.143C329.011,157.581,328.751,157.84,328.543,157.425Z" transform="translate(-317.936 -149.583)" fill="#cfe7e8"/>
        <path id="Path_39817" data-name="Path 39817" d="M408.765,161.01c0,.312.1.26.156,0a2.016,2.016,0,0,0-.1-1.091c-.156-.364-.208-.208-.26-.1-.1.156-.1.208.052.364A2.955,2.955,0,0,1,408.765,161.01Z" transform="translate(-393.172 -158.934)" fill="#cfe7e8"/>
        <path id="Path_39818" data-name="Path 39818" d="M402.881,155.254c-.1-2.182-.364-3.116-.312-3.947q.312.234.156-.156c-.1-.26-.26-.571-.364-.883-.1-.26-.156-.208-.312,0a.439.439,0,0,0-.1.467c.312,2.649.467,4.051.519,4.882a2.55,2.55,0,0,1-1.35,2.6c-.364.26-.779.519.1.312C402.05,158.266,402.985,157.7,402.881,155.254Z" transform="translate(-385.885 -149.957)" fill="#cfe7e8"/>
        <path id="Path_39819" data-name="Path 39819" d="M389.045,263.009c-.156.208.208.312.26.156.1.156,0,.416-.156.571-.26.208-.1.26.052.1.156-.1.571-.571.312-.883A.329.329,0,0,0,389.045,263.009Z" transform="translate(-374.958 -255.427)" fill="#cfe7e8"/>
      </g>
      <path id="Path_39820" data-name="Path 39820" d="M114.668,312.548c-.675,0-1.3,0-1.974.052v-.208c.208-.26.156-.26,0-.519-.052-.1-.1-.208-.26,0s-.156.26.052.519v.208c-5.142.052-10.8,0-15.686-.052.519.883,2.285.831,3.9.831,1.454,0,5.817,0,11.739-.156v.26c-.208.26-.156.26,0,.519.156.208.208.1.26,0a.161.161,0,0,0,.052-.1h.779c0,.1.156.156.208.156s.208-.052.208-.156h.883a.392.392,0,0,0,.364.208c.312,0,.467-.364.416-.831C115.551,312.6,115.291,312.5,114.668,312.548Zm-.727,1.039c0-.1-.156-.156-.208-.156s-.208.052-.208.156h-.779c0-.052-.052-.1-.156-.208v-.26c.675,0,1.4-.052,2.13-.052a1.438,1.438,0,0,0-.052.467Z" transform="translate(-90.515 -296.55)" fill="#fff"/>
      <path id="Path_39821" data-name="Path 39821" d="M338.234,312.548c-.675,0-1.3,0-1.974.052v-.208c.208-.26.156-.26,0-.519-.052-.1-.1-.208-.26,0s-.156.26.052.519v.208H336l.727.623c.519,0,1.091-.052,1.61-.052a1.438,1.438,0,0,0-.052.467h-.779c0-.1-.156-.156-.208-.156s-.156.052-.156.1l.364.312v-.052h.883a.392.392,0,0,0,.364.208c.312,0,.467-.364.416-.831C339.117,312.6,338.857,312.5,338.234,312.548Z" transform="translate(-314.081 -296.55)" fill="#cfe7e8"/>
    </g>
  </g>
</svg>
