<svg xmlns="http://www.w3.org/2000/svg" xmlns:xlink="http://www.w3.org/1999/xlink" width="60.214" height="49.864" viewBox="0 0 60.214 49.864">
  <defs>
    <linearGradient id="linear-gradient" x1="0.399" y1="-0.121" x2="0.744" y2="1.354" gradientUnits="objectBoundingBox">
      <stop offset="0.012" stop-color="#e03550"/>
      <stop offset="0.568" stop-color="#662278"/>
    </linearGradient>
    <linearGradient id="linear-gradient-2" x1="-7.111" y1="21.389" x2="-7.105" y2="21.371" gradientUnits="objectBoundingBox">
      <stop offset="0.106" stop-color="#9e1732"/>
      <stop offset="0.797" stop-color="#770827"/>
    </linearGradient>
    <linearGradient id="linear-gradient-3" x1="-0.258" y1="0.985" x2="1.582" y2="-0.059" gradientUnits="objectBoundingBox">
      <stop offset="0.1" stop-color="#ffbd31"/>
      <stop offset="0.806" stop-color="#e1402a"/>
    </linearGradient>
    <linearGradient id="linear-gradient-4" x1="0.263" y1="0.265" x2="0.792" y2="1.032" gradientUnits="objectBoundingBox">
      <stop offset="0.101" stop-color="#73a33b"/>
      <stop offset="0.733" stop-color="#c2c53e"/>
    </linearGradient>
    <linearGradient id="linear-gradient-5" x1="-0.258" y1="1.212" x2="1.041" y2="0.089" gradientUnits="objectBoundingBox">
      <stop offset="0.079" stop-color="#fda52f"/>
      <stop offset="1" stop-color="#e14528"/>
    </linearGradient>
    <linearGradient id="linear-gradient-6" x1="0.227" y1="-0.103" x2="1.159" y2="1.056" gradientUnits="objectBoundingBox">
      <stop offset="0.155" stop-color="#e14373"/>
      <stop offset="0.551" stop-color="#a32b7a"/>
      <stop offset="0.902" stop-color="#7d1460"/>
    </linearGradient>
    <linearGradient id="linear-gradient-7" x1="-5.761" y1="4.528" x2="-5.766" y2="4.521" gradientUnits="objectBoundingBox">
      <stop offset="0.283" stop-color="#5c2071"/>
      <stop offset="1" stop-color="#461e66"/>
    </linearGradient>
    <linearGradient id="linear-gradient-8" x1="-0.002" y1="0.83" x2="1.506" y2="0.066" gradientUnits="objectBoundingBox">
      <stop offset="0.051" stop-color="#73af4f"/>
      <stop offset="0.806" stop-color="#c6c33a"/>
    </linearGradient>
  </defs>
  <g id="Group_39468" data-name="Group 39468" transform="translate(-2354.374 2287.909)">
    <g id="Group_2" data-name="Group 2" transform="translate(2372.164 -2287.909)">
      <path id="Path_1" data-name="Path 1" d="M509.284,126.174s1.51-1.995,4.621-.89,1.522,5.669,1.522,5.669l-.721,2.677,2.6-.017-.226,1.116-2.739.011-2.051,7.777s-.338,1.646,1.037,2.085a2.764,2.764,0,0,0,2.66-.969,17.768,17.768,0,0,0,2.5-3.629c.372-.795,4.5-7.879,3.956-13.187-.583-5.721-6.222-6.9-6.222-6.9a10.235,10.235,0,0,0-9.941,3.821,12.483,12.483,0,0,0-2.4,4.328C503.837,128.276,509.284,126.174,509.284,126.174Z" transform="translate(-497.59 -119.747)" fill="url(#linear-gradient)"/>
      <path id="Path_3" data-name="Path 3" d="M504.994,199.113c-.086.133-.439.839-.5.983a6.662,6.662,0,0,0-.416,1.207,14.994,14.994,0,0,1,2.515-1.184,17.909,17.909,0,0,1,2.9-.735.177.177,0,0,0-.057-.028A13.341,13.341,0,0,0,504.994,199.113Z" transform="translate(-497.763 -192.999)" fill="url(#linear-gradient-2)"/>
      <path id="Path_2" data-name="Path 2" d="M433.134,211.23l1.443-5.636s.609-1.758-1.86-1.86-5.444,2.006-5.444,2.006a16.262,16.262,0,0,0-5.106,7.9c-1.758,5.478-.71,8.42-.71,8.42-.071-.171,1.109,4.364,5.41,5.41a4.413,4.413,0,0,0,2.477.152,5.519,5.519,0,0,1-.93-2.637c-.2-3.031.383-4.093,1.082-6.171a51.486,51.486,0,0,1,3.28-6.53l-1.543,0,.241-1.095Z" transform="translate(-421.147 -197.342)" fill="url(#linear-gradient-3)"/>
      <path id="Path_3-2" data-name="Path 3" d="M519.414,316.167l-1.936,7.19s-1.231,5.045,4.266,5.359c4.137.237,6.419-3.956,6.419-3.956a9.1,9.1,0,0,1-.254,6.38c-1.477,3.843-5.9,3.917-6.8,3.765a7.8,7.8,0,0,1-5.131-3.4,6.547,6.547,0,0,1-.865-5.281,23.433,23.433,0,0,1,2.39-6.537C518.2,318.328,519.414,316.167,519.414,316.167Z" transform="translate(-507.785 -301.223)" fill="url(#linear-gradient-4)"/>
      <path id="Path_4" data-name="Path 4" d="M447.276,262.37l.842-3.288c-6.468.145-11.673,6.405-11.673,14.108a16.811,16.811,0,0,0,.135,2.129,7.3,7.3,0,0,0,4.43,3.293,4.414,4.414,0,0,0,2.477.152,5.519,5.519,0,0,1-.93-2.638c-.2-3.031.382-4.093,1.082-6.171a51.484,51.484,0,0,1,3.28-6.53l-1.543,0,.241-1.095Z" transform="translate(-435.28 -248.481)" fill="url(#linear-gradient-5)"/>
      <path id="Path_5" data-name="Path 5" d="M499.614,318.275c-3.581,3.664-6.034,8.31-6.034,12.32a13.126,13.126,0,0,0,.282,2.707,4.347,4.347,0,0,0,2.42.139,5.52,5.52,0,0,1-.93-2.638,12.16,12.16,0,0,1,1.082-6.171A53.02,53.02,0,0,1,499.614,318.275Z" transform="translate(-488.069 -303.171)" fill="#d55a29"/>
      <g id="Group_1" data-name="Group 1" transform="translate(0.008 6.457)">
        <path id="Path_6" data-name="Path 6" d="M421.556,218.7c.849-6.974,4.939-12.344,10.277-14.082a12.685,12.685,0,0,0-4.451,1.939,16.262,16.262,0,0,0-5.106,7.9c-1.382,4.3-1.031,7.042-.817,8.017A19.568,19.568,0,0,1,421.556,218.7Z" transform="translate(-421.257 -204.62)" fill="#ffb032"/>
      </g>
      <path id="Path_7" data-name="Path 7" d="M563.154,121.068c5.156.955,8.379,6.756,7.041,14.742,1.119-2.647,2.221-6.085,1.925-8.991-.583-5.721-6.222-6.9-6.222-6.9a10.136,10.136,0,0,0-8.261,2.129A8.3,8.3,0,0,1,563.154,121.068Z" transform="translate(-547.253 -119.75)" fill="url(#linear-gradient-6)"/>
      <g id="Group_5" data-name="Group 5" transform="translate(14.682 16.431)">
        <path id="Path_11" data-name="Path 11" d="M615.505,342.6a1.283,1.283,0,0,1-1.221-1.017,2.807,2.807,0,0,0-.154.854,1.586,1.586,0,0,0,.774,1.543,2.05,2.05,0,0,0,2.153-.167,10.28,10.28,0,0,0,2.71-3.176,47.059,47.059,0,0,0,2.461-4.924C617.2,343.11,616.173,342.6,615.505,342.6Z" transform="translate(-614.13 -335.716)" fill="url(#linear-gradient-7)"/>
      </g>
      <path id="Path_8" data-name="Path 8" d="M570.114,429.111s-2.282,4.193-6.419,3.956a4.921,4.921,0,0,1-3.228-1.179,4.892,4.892,0,0,0,.7,3.986c1.563,2.168,4.863,2.544,7.868,1.083a5.617,5.617,0,0,0,.826-1.467A9.1,9.1,0,0,0,570.114,429.111Z" transform="translate(-549.736 -405.574)" fill="url(#linear-gradient-8)"/>
      <path id="Path_9" data-name="Path 9" d="M515.123,325.609a38.721,38.721,0,0,1,3.746-9.215l.109-.227s-1.221,2.162-1.913,3.522a22.941,22.941,0,0,0-2.438,6.491,6.653,6.653,0,0,0,.914,5.327,8.546,8.546,0,0,0,3.238,2.809A7.5,7.5,0,0,1,515.123,325.609Z" transform="translate(-507.341 -301.223)" fill="#aec54f"/>
    </g>
    <path id="Path_11-2" data-name="Path 11" d="M-434.848-82.628h1.287v-5.089h1.782v-1.061h-4.846v1.061h1.777Zm4.862.072a1.644,1.644,0,0,0,.558-.092,1.5,1.5,0,0,0,.458-.26,1.376,1.376,0,0,0,.33-.4h.026v.682h1.245v-3.133a1.373,1.373,0,0,0-.241-.806,1.561,1.561,0,0,0-.675-.535,2.555,2.555,0,0,0-1.027-.19,2.646,2.646,0,0,0-1.038.185,1.614,1.614,0,0,0-.682.514,1.419,1.419,0,0,0-.279.75l0,.051h1.138l.009-.038a.591.591,0,0,1,.251-.367.942.942,0,0,1,.554-.145.8.8,0,0,1,.558.177.62.62,0,0,1,.192.479V-84.3a.758.758,0,0,1-.126.428.864.864,0,0,1-.345.3,1.1,1.1,0,0,1-.5.109.844.844,0,0,1-.516-.143.464.464,0,0,1-.192-.394v-.009a.471.471,0,0,1,.188-.39.967.967,0,0,1,.546-.168l1.594-.1v-.776l-1.782.111a2.945,2.945,0,0,0-.963.209,1.388,1.388,0,0,0-.605.467,1.207,1.207,0,0,0-.209.714v.009a1.328,1.328,0,0,0,.194.714,1.335,1.335,0,0,0,.539.49A1.733,1.733,0,0,0-429.986-82.556Zm4.321-.072h1.244v-6.15h-1.244Zm4.317.072a1.644,1.644,0,0,0,.558-.092,1.5,1.5,0,0,0,.458-.26,1.375,1.375,0,0,0,.33-.4h.026v.682h1.245v-3.133a1.372,1.372,0,0,0-.241-.806,1.561,1.561,0,0,0-.676-.535,2.554,2.554,0,0,0-1.027-.19,2.646,2.646,0,0,0-1.038.185,1.615,1.615,0,0,0-.682.514,1.419,1.419,0,0,0-.279.75l0,.051h1.138l.008-.038a.591.591,0,0,1,.252-.367.942.942,0,0,1,.554-.145.8.8,0,0,1,.558.177.62.62,0,0,1,.192.479V-84.3a.758.758,0,0,1-.126.428.864.864,0,0,1-.345.3,1.1,1.1,0,0,1-.5.109.844.844,0,0,1-.516-.143.464.464,0,0,1-.192-.394v-.009a.471.471,0,0,1,.188-.39.966.966,0,0,1,.545-.168l1.594-.1v-.776l-1.782.111a2.945,2.945,0,0,0-.963.209,1.388,1.388,0,0,0-.605.467,1.207,1.207,0,0,0-.209.714v.009a1.329,1.329,0,0,0,.194.714,1.335,1.335,0,0,0,.539.49A1.734,1.734,0,0,0-421.349-82.556Zm7,.021a1.716,1.716,0,0,0,.993-.286,1.821,1.821,0,0,0,.644-.818,3.256,3.256,0,0,0,.226-1.274v0a3.252,3.252,0,0,0-.226-1.277,1.814,1.814,0,0,0-.642-.814,1.716,1.716,0,0,0-.991-.283,1.643,1.643,0,0,0-.6.107,1.418,1.418,0,0,0-.48.3,1.57,1.57,0,0,0-.332.475h-.026v-2.374h-1.245v6.15h1.245v-.78h.026a1.473,1.473,0,0,0,.328.467,1.456,1.456,0,0,0,.477.3A1.638,1.638,0,0,0-414.351-82.534Zm-.413-1.031a.894.894,0,0,1-.533-.164,1.065,1.065,0,0,1-.358-.467,1.832,1.832,0,0,1-.128-.716v0a1.789,1.789,0,0,1,.13-.714,1.088,1.088,0,0,1,.358-.465.885.885,0,0,1,.531-.164.9.9,0,0,1,.535.162,1.03,1.03,0,0,1,.352.462,1.885,1.885,0,0,1,.124.718v0a1.889,1.889,0,0,1-.124.716,1.05,1.05,0,0,1-.35.467A.889.889,0,0,1-414.764-83.566Zm5.148,1.01a1.644,1.644,0,0,0,.558-.092,1.5,1.5,0,0,0,.458-.26,1.375,1.375,0,0,0,.33-.4h.026v.682H-407v-3.133a1.372,1.372,0,0,0-.241-.806,1.561,1.561,0,0,0-.675-.535,2.555,2.555,0,0,0-1.027-.19,2.646,2.646,0,0,0-1.038.185,1.614,1.614,0,0,0-.682.514,1.418,1.418,0,0,0-.279.75l0,.051h1.138l.009-.038a.591.591,0,0,1,.251-.367.942.942,0,0,1,.554-.145.8.8,0,0,1,.558.177.62.62,0,0,1,.192.479V-84.3a.758.758,0,0,1-.126.428.865.865,0,0,1-.345.3,1.1,1.1,0,0,1-.5.109.844.844,0,0,1-.516-.143.464.464,0,0,1-.192-.394v-.009a.471.471,0,0,1,.188-.39.967.967,0,0,1,.546-.168l1.594-.1v-.776l-1.781.111a2.946,2.946,0,0,0-.963.209,1.388,1.388,0,0,0-.605.467,1.207,1.207,0,0,0-.209.714v.009a1.328,1.328,0,0,0,.194.714,1.334,1.334,0,0,0,.539.49A1.733,1.733,0,0,0-409.617-82.556Zm6.107.021q.2,0,.347-.015t.254-.032v-.912q-.055.009-.119.015t-.149.006a.625.625,0,0,1-.424-.126.573.573,0,0,1-.143-.445v-2.216h.835V-87.2h-.835v-1.117H-405V-87.2h-.635v.938H-405v2.353a1.332,1.332,0,0,0,.367,1.053A1.678,1.678,0,0,0-403.51-82.534Zm4.993-.094h.541v-5.059h.277l-.652-.959,2.54,6.018h.507l2.54-6.018-.652.959h.277v5.059h.546v-6.15h-.669l-2.285,5.421h-.021l-2.284-5.421h-.665Zm9.649.081a2.218,2.218,0,0,0,.665-.1,1.82,1.82,0,0,0,.546-.273,1.6,1.6,0,0,0,.394-.418,1.547,1.547,0,0,0,.215-.522l.008-.043h-.554l-.013.038a1.063,1.063,0,0,1-.243.426,1.139,1.139,0,0,1-.426.283,1.58,1.58,0,0,1-.58.1,1.452,1.452,0,0,1-.771-.2,1.33,1.33,0,0,1-.509-.58,2.124,2.124,0,0,1-.181-.921v-.213a2.077,2.077,0,0,1,.181-.906,1.333,1.333,0,0,1,.5-.573,1.336,1.336,0,0,1,.72-.2,1.325,1.325,0,0,1,.714.192,1.3,1.3,0,0,1,.486.565,2.135,2.135,0,0,1,.177.918v.213l.285-.4H-390.6v.448h3.619v-.222a2.688,2.688,0,0,0-.237-1.164,1.812,1.812,0,0,0-.669-.774,1.87,1.87,0,0,0-1.025-.275,1.87,1.87,0,0,0-1.036.286,1.89,1.89,0,0,0-.688.806,2.822,2.822,0,0,0-.245,1.215v0a2.79,2.79,0,0,0,.245,1.213,1.835,1.835,0,0,0,.7.793A2,2,0,0,0-388.868-82.547Zm3.511-.081h.563v-2.625a1.562,1.562,0,0,1,.16-.727,1.192,1.192,0,0,1,.45-.484,1.287,1.287,0,0,1,.678-.175,1.118,1.118,0,0,1,.865.324,1.343,1.343,0,0,1,.3.942v2.745h.563v-2.839a1.73,1.73,0,0,0-.413-1.227,1.5,1.5,0,0,0-1.151-.443,1.624,1.624,0,0,0-.9.237,1.434,1.434,0,0,0-.537.6h-.013v-.759h-.563Zm6.934.077a1.781,1.781,0,0,0,.641-.109,1.449,1.449,0,0,0,.484-.3,1.4,1.4,0,0,0,.311-.428h.017v.759h.558v-4.433h-.558v2.625a1.651,1.651,0,0,1-.092.565,1.245,1.245,0,0,1-.264.437,1.2,1.2,0,0,1-.407.283,1.333,1.333,0,0,1-.529.1,1.119,1.119,0,0,1-.863-.324,1.337,1.337,0,0,1-.3-.942v-2.745h-.563v2.839a1.981,1.981,0,0,0,.188.9,1.333,1.333,0,0,0,.537.575A1.662,1.662,0,0,0-378.423-82.551Z" transform="translate(2791 -2160.413)" fill="#1f303f"/>
    <path id="Path_10" data-name="Path 10" d="M-288.654-26.667h.3v-.748h.417l.4.748h.35l-.437-.8a.53.53,0,0,0,.277-.208.605.605,0,0,0,.1-.348v0a.614.614,0,0,0-.079-.318.53.53,0,0,0-.225-.207.763.763,0,0,0-.345-.073h-.759Zm.3-1v-.7h.417a.391.391,0,0,1,.275.093.328.328,0,0,1,.1.254v0a.34.34,0,0,1-.1.259.377.377,0,0,1-.271.091Zm3.074,1.027a.742.742,0,0,0,.235-.035.6.6,0,0,0,.183-.1.554.554,0,0,0,.126-.139.486.486,0,0,0,.066-.161l0-.015h-.279l0,.011a.245.245,0,0,1-.062.1.323.323,0,0,1-.11.07.412.412,0,0,1-.153.026.389.389,0,0,1-.2-.052.341.341,0,0,1-.133-.15.545.545,0,0,1-.047-.236v-.114a.567.567,0,0,1,.047-.244.349.349,0,0,1,.13-.151.346.346,0,0,1,.187-.051.352.352,0,0,1,.186.049.324.324,0,0,1,.126.148.6.6,0,0,1,.045.25v.114l.145-.193H-285.8v.207h1.157v-.1a.851.851,0,0,0-.078-.375.587.587,0,0,0-.223-.25.645.645,0,0,0-.344-.089.637.637,0,0,0-.346.093.617.617,0,0,0-.229.26.881.881,0,0,0-.081.389h0a.884.884,0,0,0,.081.39.59.59,0,0,0,.231.256A.688.688,0,0,0-285.277-26.639Zm2.5,0a.757.757,0,0,0,.3-.055.489.489,0,0,0,.205-.154.37.37,0,0,0,.074-.229h0a.332.332,0,0,0-.091-.246.64.64,0,0,0-.309-.141l-.233-.054a.5.5,0,0,1-.122-.043.171.171,0,0,1-.068-.061.15.15,0,0,1-.021-.078h0a.164.164,0,0,1,.031-.1.2.2,0,0,1,.089-.066.371.371,0,0,1,.137-.023.3.3,0,0,1,.195.059.228.228,0,0,1,.084.152v.009h.275v-.016a.416.416,0,0,0-.075-.219.465.465,0,0,0-.19-.155.68.68,0,0,0-.29-.057.725.725,0,0,0-.288.053.448.448,0,0,0-.193.15.378.378,0,0,0-.069.225h0a.36.36,0,0,0,.045.181.369.369,0,0,0,.135.133.773.773,0,0,0,.225.085l.233.053a.368.368,0,0,1,.16.07.145.145,0,0,1,.045.111h0a.155.155,0,0,1-.034.1.212.212,0,0,1-.1.064.451.451,0,0,1-.152.022.346.346,0,0,1-.208-.055.249.249,0,0,1-.1-.152l0-.014h-.29v.012a.461.461,0,0,0,.088.228.479.479,0,0,0,.2.153A.776.776,0,0,0-282.779-26.639Zm2.414,0a.816.816,0,0,0,.084,0l.065-.008v-.226l-.036,0-.043,0a.214.214,0,0,1-.141-.04.187.187,0,0,1-.047-.148v-.8h.267v-.233h-.267v-.371h-.3v.371h-.2v.233h.2v.815a.4.4,0,0,0,.1.309A.451.451,0,0,0-280.365-26.639Zm1.895,0a.514.514,0,0,0,.178-.03.49.49,0,0,0,.15-.087.464.464,0,0,0,.108-.133h.005v.225h.295v-.981a.436.436,0,0,0-.07-.248.462.462,0,0,0-.2-.164.721.721,0,0,0-.3-.058.735.735,0,0,0-.3.057.485.485,0,0,0-.2.155.432.432,0,0,0-.083.221v.015h.276l0-.012a.227.227,0,0,1,.1-.139.343.343,0,0,1,.2-.054.3.3,0,0,1,.21.067.238.238,0,0,1,.073.185v.424a.3.3,0,0,1-.047.166.328.328,0,0,1-.129.116.4.4,0,0,1-.185.042.3.3,0,0,1-.189-.054.175.175,0,0,1-.071-.147v0a.175.175,0,0,1,.071-.145.363.363,0,0,1,.2-.063l.5-.031v-.206l-.539.032a.815.815,0,0,0-.286.062.421.421,0,0,0-.181.143.368.368,0,0,0-.062.214v0a.422.422,0,0,0,.06.225.4.4,0,0,0,.166.152A.544.544,0,0,0-278.47-26.642Zm2.612,0a.556.556,0,0,0,.193-.031.444.444,0,0,0,.145-.086.441.441,0,0,0,.1-.125h.007v.214h.294v-1.423h-.294v.831a.458.458,0,0,1-.024.151.324.324,0,0,1-.068.116.31.31,0,0,1-.106.074.352.352,0,0,1-.14.026.285.285,0,0,1-.227-.086.364.364,0,0,1-.075-.247v-.866h-.295v.921a.638.638,0,0,0,.058.283.419.419,0,0,0,.168.183A.52.52,0,0,0-275.859-26.639Zm2.133-.028h.295v-.848a.41.41,0,0,1,.037-.181.261.261,0,0,1,.106-.115.319.319,0,0,1,.162-.04.591.591,0,0,1,.078,0,.248.248,0,0,1,.053.012v-.272l-.043-.007a.467.467,0,0,0-.059,0,.314.314,0,0,0-.208.072.378.378,0,0,0-.12.2h-.005v-.244h-.295Zm2.409.026a.514.514,0,0,0,.178-.03.488.488,0,0,0,.149-.087.462.462,0,0,0,.108-.133h.005v.225h.295v-.981a.436.436,0,0,0-.07-.248.461.461,0,0,0-.2-.164.72.72,0,0,0-.3-.058.735.735,0,0,0-.3.057.485.485,0,0,0-.2.155.432.432,0,0,0-.082.221v.015h.276l0-.012a.227.227,0,0,1,.1-.139.343.343,0,0,1,.2-.054.3.3,0,0,1,.21.067.238.238,0,0,1,.073.185v.424a.3.3,0,0,1-.047.166.328.328,0,0,1-.129.116.4.4,0,0,1-.185.042.3.3,0,0,1-.189-.054.175.175,0,0,1-.071-.147v0a.175.175,0,0,1,.071-.145.363.363,0,0,1,.2-.063l.5-.031v-.206l-.539.032a.815.815,0,0,0-.286.062.421.421,0,0,0-.181.143.368.368,0,0,0-.062.214v0a.422.422,0,0,0,.06.225.4.4,0,0,0,.166.152A.544.544,0,0,0-271.317-26.642Zm2.126-.026h.295V-27.5a.431.431,0,0,1,.041-.195.306.306,0,0,1,.118-.129.341.341,0,0,1,.179-.046.284.284,0,0,1,.227.087.367.367,0,0,1,.075.248v.865h.294v-.921a.555.555,0,0,0-.129-.388.465.465,0,0,0-.363-.141.51.51,0,0,0-.271.067.446.446,0,0,0-.166.175h-.005v-.215h-.295Zm3.12.028a.816.816,0,0,0,.084,0l.065-.008v-.226l-.036,0-.043,0a.214.214,0,0,1-.141-.04.188.188,0,0,1-.047-.148v-.8h.267v-.233h-.267v-.371h-.3v.371h-.2v.233h.2v.815a.4.4,0,0,0,.1.309A.451.451,0,0,0-266.071-26.639Zm3.867,0a1.015,1.015,0,0,0,.4-.071.576.576,0,0,0,.257-.2.531.531,0,0,0,.09-.309h0a.514.514,0,0,0-.061-.258.481.481,0,0,0-.188-.179,1.151,1.151,0,0,0-.329-.114l-.212-.046a.66.66,0,0,1-.269-.108.218.218,0,0,1-.087-.179h0a.24.24,0,0,1,.049-.15.318.318,0,0,1,.138-.1.561.561,0,0,1,.21-.036.557.557,0,0,1,.2.035.349.349,0,0,1,.143.1.3.3,0,0,1,.067.157l0,.018h.3V-28.1a.538.538,0,0,0-.1-.289.6.6,0,0,0-.246-.193.876.876,0,0,0-.359-.069.894.894,0,0,0-.367.071.6.6,0,0,0-.25.2.5.5,0,0,0-.092.293h0a.464.464,0,0,0,.141.351.871.871,0,0,0,.428.2l.212.045a.672.672,0,0,1,.279.112.23.23,0,0,1,.085.187h0a.252.252,0,0,1-.052.158.33.33,0,0,1-.147.1.628.628,0,0,1-.226.037.692.692,0,0,1-.23-.035.4.4,0,0,1-.162-.1.284.284,0,0,1-.075-.155l0-.018h-.3v.02a.532.532,0,0,0,.108.3.61.61,0,0,0,.26.19A1.021,1.021,0,0,0-262.2-26.635Zm2.257.442a.636.636,0,0,0,.24-.041.413.413,0,0,0,.17-.131.85.85,0,0,0,.124-.238l.53-1.488h-.31l-.379,1.222.051-.064h-.072l.051.064-.377-1.222h-.318l.518,1.425-.024.068a.24.24,0,0,1-.1.138.334.334,0,0,1-.166.035.411.411,0,0,1-.055,0l-.041-.006v.229q.027.005.069.009C-260-26.194-259.974-26.192-259.946-26.192Zm2.873-.447a.757.757,0,0,0,.3-.055.489.489,0,0,0,.2-.154.37.37,0,0,0,.074-.229h0a.332.332,0,0,0-.091-.246.639.639,0,0,0-.309-.141l-.233-.054a.5.5,0,0,1-.122-.043.172.172,0,0,1-.068-.061.15.15,0,0,1-.021-.078h0a.164.164,0,0,1,.031-.1.2.2,0,0,1,.089-.066.371.371,0,0,1,.137-.023.3.3,0,0,1,.195.059.228.228,0,0,1,.084.152v.009h.275v-.016a.417.417,0,0,0-.075-.219.466.466,0,0,0-.19-.155.68.68,0,0,0-.29-.057.725.725,0,0,0-.288.053.447.447,0,0,0-.193.15.378.378,0,0,0-.069.225h0a.36.36,0,0,0,.045.181.368.368,0,0,0,.135.133.773.773,0,0,0,.225.085l.233.053a.368.368,0,0,1,.16.07.145.145,0,0,1,.045.111h0a.154.154,0,0,1-.034.1.211.211,0,0,1-.1.064.452.452,0,0,1-.152.022.346.346,0,0,1-.208-.055.249.249,0,0,1-.1-.152l0-.014h-.29v.012a.463.463,0,0,0,.088.228.479.479,0,0,0,.2.153A.776.776,0,0,0-257.073-26.639Zm2.414,0a.817.817,0,0,0,.084,0l.065-.008v-.226l-.036,0-.043,0a.214.214,0,0,1-.141-.04.187.187,0,0,1-.047-.148v-.8h.267v-.233h-.267v-.371h-.3v.371h-.2v.233h.2v.815a.4.4,0,0,0,.1.309A.451.451,0,0,0-254.659-26.639Zm2.073,0a.742.742,0,0,0,.235-.035.6.6,0,0,0,.183-.1.553.553,0,0,0,.126-.139.487.487,0,0,0,.066-.161l0-.015h-.279l0,.011a.245.245,0,0,1-.062.1.322.322,0,0,1-.11.07.411.411,0,0,1-.153.026.389.389,0,0,1-.2-.052.341.341,0,0,1-.133-.15.546.546,0,0,1-.047-.236v-.114a.565.565,0,0,1,.047-.244.349.349,0,0,1,.13-.151.346.346,0,0,1,.187-.051.352.352,0,0,1,.186.049.324.324,0,0,1,.126.148.6.6,0,0,1,.045.25v.114l.145-.193h-1.015v.207h1.157v-.1a.85.85,0,0,0-.078-.375.587.587,0,0,0-.223-.25.645.645,0,0,0-.344-.089.637.637,0,0,0-.346.093.617.617,0,0,0-.229.26.88.88,0,0,0-.081.389h0a.884.884,0,0,0,.081.39.59.59,0,0,0,.231.256A.689.689,0,0,0-252.586-26.639Zm1.962-.028h.295v-.879a.348.348,0,0,1,.038-.165.288.288,0,0,1,.1-.113.284.284,0,0,1,.152-.041.291.291,0,0,1,.143.033.233.233,0,0,1,.093.093.291.291,0,0,1,.033.143v.93h.288v-.89a.337.337,0,0,1,.037-.16.274.274,0,0,1,.1-.11.291.291,0,0,1,.152-.039.3.3,0,0,1,.148.034.222.222,0,0,1,.092.1.357.357,0,0,1,.032.158v.908h.295v-.98a.5.5,0,0,0-.058-.248.416.416,0,0,0-.162-.164.49.49,0,0,0-.245-.059.518.518,0,0,0-.189.034.458.458,0,0,0-.153.1.444.444,0,0,0-.1.15h-.007a.4.4,0,0,0-.084-.152.371.371,0,0,0-.136-.1.461.461,0,0,0-.177-.032.437.437,0,0,0-.244.068.384.384,0,0,0-.15.18h-.005v-.221h-.295Z" transform="translate(2653.28 -2211.853)" fill="#1f303f"/>
  </g>
</svg>
