<svg xmlns="http://www.w3.org/2000/svg" width="20" height="23.247" viewBox="0 0 20 23.247">
  <g id="Notification" transform="translate(0 0)">
    <g id="Stroke_1" data-name="Stroke 1" transform="translate(0 0)">
      <path id="Stroke_1-border" data-name="Stroke 1-border" d="M10,16.954a19.507,19.507,0,0,0,6.483-.72,3.069,3.069,0,0,0,1.372-.932,2.709,2.709,0,0,0,.524-1.463,4.11,4.11,0,0,0-.254-1.5A7.215,7.215,0,0,0,17.51,11.2a7.289,7.289,0,0,1-.751-1.567,7.834,7.834,0,0,1-.346-2.466h1.621A6.259,6.259,0,0,0,18.3,9.135a5.711,5.711,0,0,0,.6,1.236,8.728,8.728,0,0,1,.738,1.394,5.712,5.712,0,0,1,.36,2.11h0q0,.035,0,.069a4.318,4.318,0,0,1-.859,2.339,4.683,4.683,0,0,1-2.064,1.444A20.887,20.887,0,0,1,10,18.559Zm-7.073.779A4.675,4.675,0,0,1,.863,16.288,4.321,4.321,0,0,1,0,13.945q0-.035,0-.069H0a5.712,5.712,0,0,1,.36-2.11A8.728,8.728,0,0,1,1.1,10.372a5.711,5.711,0,0,0,.6-1.236,6.26,6.26,0,0,0,.269-1.973C1.966,3.727,5.2,0,10,0V1.6c-3.943,0-6.412,3.044-6.412,5.559a7.834,7.834,0,0,1-.346,2.466A7.289,7.289,0,0,1,2.49,11.2a7.215,7.215,0,0,0-.615,1.144,4.11,4.11,0,0,0-.254,1.5,2.724,2.724,0,0,0,.525,1.468,3.078,3.078,0,0,0,1.371.931A19.581,19.581,0,0,0,10,16.954v1.605A20.95,20.95,0,0,1,2.927,17.733ZM16.413,7.163C16.413,4.648,13.943,1.6,10,1.6V0c4.8,0,8.034,3.727,8.034,7.163Z" fill="#aba5a2"/>
    </g>
    <g id="Stroke_3" data-name="Stroke 3" transform="translate(6.359 20.265)">
      <path id="Stroke_3-border" data-name="Stroke 3-border" d="M.216,1.412A.846.846,0,0,1,1.475.281a2.727,2.727,0,0,0,4.235,0A.847.847,0,0,1,6.969,1.413a4.542,4.542,0,0,1-3.38,1.569A4.522,4.522,0,0,1,.216,1.412Z" transform="translate(0 0)" fill="#aba5a2"/>
    </g>
  </g>
</svg>
