<svg xmlns="http://www.w3.org/2000/svg" width="14.59" height="14.594" viewBox="0 0 14.59 14.594">
  <g id="sandclock" transform="translate(-0.064 0)">
    <path id="Path_39964" data-name="Path 39964" d="M11.49,14.024a.57.57,0,0,1-.57.57H.631a.57.57,0,0,1,0-1.14h.542V11.346A4.625,4.625,0,0,1,3.562,7.3a4.625,4.625,0,0,1-2.39-4.049V1.14H.631A.57.57,0,0,1,.631,0H10.977a.57.57,0,0,1,0,1.14h-.57v.884a.57.57,0,0,1-1.14,0V1.14H2.312V3.248A3.475,3.475,0,0,0,5.79,6.727a.57.57,0,0,1,0,1.14,3.475,3.475,0,0,0-3.477,3.479v2.108h6.9v-.912a.57.57,0,0,1,1.14,0v.912h.57A.57.57,0,0,1,11.49,14.024ZM7.443,3.9a.57.57,0,0,0-.57-.57H4.023a.57.57,0,0,0,0,1.14h2.85A.57.57,0,0,0,7.443,3.9ZM4.821,10.176l-1.2,1.192a.57.57,0,0,0,.8.809l1.2-1.192a.235.235,0,0,1,.331,0l1.2,1.192a.57.57,0,0,0,.8-.809l-1.2-1.191A1.378,1.378,0,0,0,4.821,10.176Z" fill="#aba5a2"/>
    <path id="Path_39965" data-name="Path 39965" d="M255.641,134.235a3.705,3.705,0,1,1,3.705-3.705A3.71,3.71,0,0,1,255.641,134.235Zm0-6.271a2.565,2.565,0,1,0,2.565,2.565A2.568,2.568,0,0,0,255.641,127.964Zm1.568,2.565a.57.57,0,0,0-.57-.57h-.428v-.627a.57.57,0,0,0-1.14,0v1.2a.57.57,0,0,0,.57.57h1A.57.57,0,0,0,257.209,130.53Z" transform="translate(-244.693 -123.233)" fill="#aba5a2"/>
  </g>
</svg>
