<svg id="vuesax_linear_logout" data-name="vuesax/linear/logout" xmlns="http://www.w3.org/2000/svg" width="15.973" height="16.004" viewBox="0 0 15.973 16.004">
  <g id="logout" transform="translate(0 0)">
    <g id="Vector" transform="translate(5.066 0)">
      <path id="Vector-border" d="M5.484,14.835a4.47,4.47,0,0,0,3.307-.961,4.543,4.543,0,0,0,.955-3.332V5.462A4.543,4.543,0,0,0,8.791,2.13a4.467,4.467,0,0,0-3.307-.962h-.1a4.83,4.83,0,0,0-3.121.793,3.553,3.553,0,0,0-1.1,2.623L0,4.484a4.7,4.7,0,0,1,1.529-3.43A5.932,5.932,0,0,1,5.384,0h.1A5.571,5.571,0,0,1,9.612,1.3a5.665,5.665,0,0,1,1.294,4.158v5.08A5.665,5.665,0,0,1,9.612,14.7,5.574,5.574,0,0,1,5.484,16ZM5.384,16V14.835h.1V16ZM1.553,14.966A4.648,4.648,0,0,1,.01,11.585a.584.584,0,0,1,.524-.636.582.582,0,0,1,.631.528,3.5,3.5,0,0,0,1.112,2.576,4.858,4.858,0,0,0,3.106.781V16A5.961,5.961,0,0,1,1.553,14.966ZM.531,5.117A.583.583,0,0,1,0,4.484l1.156.1a.582.582,0,0,1-.577.534Z" transform="translate(0 0)" fill="#aba5a2"/>
    </g>
    <g id="Vector-2" data-name="Vector" transform="translate(0.887 7.4)">
      <path id="Vector-border-2" data-name="Vector-border" d="M9.6,0a.593.593,0,1,1,0,1.187ZM.593,1.187A.593.593,0,0,1,.593,0H9.6V1.187Z" transform="translate(0 0)" fill="#aba5a2"/>
    </g>
    <g id="Vector-3" data-name="Vector" transform="translate(0 4.748)">
      <path id="Vector-border-3" data-name="Vector-border" d="M2.826,6.318l.839-.84a.594.594,0,0,1-.839.84ZM.174,3.665a.593.593,0,0,1,0-.839l.42.42-.42-.42L2.826.174a.593.593,0,1,1,.839.839L1.433,3.246,3.665,5.478l-.839.84Z" transform="translate(0 0)" fill="#aba5a2"/>
    </g>
  </g>
</svg>
