<svg xmlns="http://www.w3.org/2000/svg" width="15.142" height="15.143" viewBox="0 0 15.142 15.143">
  <g id="Group_42533" data-name="Group 42533" transform="translate(-682 -164.5)">
    <path id="Path_39970" data-name="Path 39970" d="M684.839,330.415h-1.656v-5.324a.592.592,0,0,0-1.183,0v9.228a.592.592,0,0,0,1.183,0V331.6h1.656a.592.592,0,0,1,.591.591v2.129a.592.592,0,0,0,1.183,0V332.19A1.777,1.777,0,0,0,684.839,330.415Z" transform="translate(0 -155.268)" fill="#aba5a2"/>
    <path id="Path_39971" data-name="Path 39971" d="M1042.022,324.5a.592.592,0,0,0-.592.591v5.324h-1.656A1.776,1.776,0,0,0,1038,332.19v2.129a.591.591,0,1,0,1.183,0V332.19a.592.592,0,0,1,.591-.591h1.656v2.721a.591.591,0,1,0,1.183,0v-9.228A.591.591,0,0,0,1042.022,324.5Z" transform="translate(-345.471 -155.268)" fill="#aba5a2"/>
    <path id="Path_39972" data-name="Path 39972" d="M768.388,372.545H767.8v-4.5h4.022a.592.592,0,0,0,.592-.591v-1.183a1.777,1.777,0,0,0-1.775-1.775h-6.861A1.776,1.776,0,0,0,762,366.275v1.183a.591.591,0,0,0,.591.591h4.022v4.5h-.591a.591.591,0,1,0,0,1.183h2.366a.591.591,0,0,0,0-1.183Zm-4.891-5.4c-.263,0-.475-.13-.475-.291v-.582c0-.481.64-.872,1.426-.872h5.514c.786,0,1.426.391,1.426.872v.582c0,.161-.213.291-.475.291Z" transform="translate(-77.634 -194.085)" fill="#aba5a2"/>
    <path id="Path_39973" data-name="Path 39973" d="M836.981,169.232h4.732a.591.591,0,0,0,.591-.592,2.963,2.963,0,0,0-2.366-2.9v-.651a.591.591,0,1,0-1.183,0v.651a2.963,2.963,0,0,0-2.366,2.9A.592.592,0,0,0,836.981,169.232Zm2.366-2.66a1.671,1.671,0,0,1,1.768,1.547.334.334,0,0,1-.354.309h-2.829a.334.334,0,0,1-.354-.309A1.671,1.671,0,0,1,839.346,166.572Z" transform="translate(-149.823 0)" fill="#aba5a2"/>
  </g>
</svg>
